<svg xmlns="http://www.w3.org/2000/svg" width="64" height="64" data-name="Filled ex" id="art-board"><path fill="#fce0b0" d="M11.031 7.031h42a1 1 0 0 1 1 1v36h-44v-36a1 1 0 0 1 1-1Z"></path><path fill="#c7ebf2" d="M14.031 7.031h36v37h-36z"></path><path fill="#33c0db" d="M19.031 31.031h-5v13h36v-27H43.6a1 1 0 0 0-.857.486l-2.709 4.514H34.52a1 1 0 0 0-.789.386l-6.7 8.614h-6"></path><path fill="#f39237" d="M35.031 7.031h-6l1-6h4l1 6z"></path><path fill="#fcb641" d="M9.031 44.031h46a1 1 0 0 1 1 1v3h-48v-3a1 1 0 0 1 1-1Z"></path><path fill="#f39237" d="M34.031 48.031h-4l1 13h2l1-13zM21.761 48.031h-4l-5.46 15h4l5.46-15zM42.301 48.031h4l5.46 15h-4l-5.46-15zM23.031 11.031h-4l-1-4h6l-1 4z"></path><path fill="#fcb641" d="m46.031 7.031-1 4h-4l-1-4h6z"></path><path fill="#9bc53d" d="M40.031 35.031h6v9h-6zM25.031 36.031h2a7 7 0 0 1 7 7v1h-16v-1a7 7 0 0 1 7-7Z"></path><path d="M21.031 40.031h2v2h-2zM25.031 38.031h2v2h-2zM29.031 40.031h2v2h-2z"></path><circle cx="32.031" cy="15.031" r="2" fill="#fcb641"></circle><path d="M32.031 18.031a3 3 0 1 1 3-3 3 3 0 0 1-3 3zm0-4a1 1 0 1 0 1 1 1 1 0 0 0-1-1zm-5 6h-2v-1.5a.5.5 0 0 0-1 0v.5a1 1 0 0 1-1 1h-5v-2h4.05a2.5 2.5 0 0 1 4.95.5zM34.031 28.031h4v2h-4z"></path><path d="M55.031 43.031v-35a2 2 0 0 0-2-2H35.878l-.86-5.164a1 1 0 0 0-.987-.836h-4a1 1 0 0 0-.986.836l-.861 5.164H11.031a2 2 0 0 0-2 2v35a2 2 0 0 0-2 2v3a1 1 0 0 0 1 1h8.3l-4.969 13.658a1 1 0 0 0 .94 1.342h4a1 1 0 0 0 .939-.658l5.22-14.342h6.644l.929 12.077a1 1 0 0 0 1 .923h2a1 1 0 0 0 1-.923l.929-12.077H41.6l5.219 14.342a1 1 0 0 0 .94.658h4a1 1 0 0 0 .939-1.342L47.73 49.031h8.3a1 1 0 0 0 1-1v-3a2 2 0 0 0-1.999-2Zm-4-35h2v35h-2Zm-6.28 0-.5 2h-2.439l-.5-2Zm-13.873-6h2.307l.666 4h-3.639Zm-8.128 6-.5 2h-2.438l-.5-2Zm-5.5 0 .811 3.242a1 1 0 0 0 .969.758h4a1 1 0 0 0 .97-.758l.811-3.242h14.44l.811 3.242a1 1 0 0 0 .969.758h4a1 1 0 0 0 .97-.758l.811-3.242h2.219v8H43.6a2.009 2.009 0 0 0-1.717.969l-2.418 4.029h-4.944a1.987 1.987 0 0 0-1.579.772l-6.4 8.228h-5.511v2h6a1 1 0 0 0 .789-.385l6.7-8.615h5.51a1 1 0 0 0 .858-.485l2.712-4.513h5.433v25h-2v-8a1 1 0 0 0-1-1h-.426l1.028-5.826-1.969-.348-1.089 6.174h-.544v-8h-2v8h-1a1 1 0 0 0-1 1v8h-4a8.009 8.009 0 0 0-8-8h-2a8.009 8.009 0 0 0-8 8h-2v-11h4v-2h-4v-22Zm27.78 35h-4v-7h4Zm-12 0h-14a6.007 6.007 0 0 1 6-6h2a6.007 6.007 0 0 1 6.001 6Zm-22-35h2v35h-2Zm4.571 54h-1.872l4.732-13h1.872Zm16.5-2h-.148l-.846-11h1.84Zm18.228 2h-1.868l-4.732-13H45.6Zm4.7-15h-46v-2h46Z"></path></svg>