<svg xmlns="http://www.w3.org/2000/svg" width="32" height="32" id="book"><path fill-rule="evenodd" d="M2.507 1024.861a.5.5 0 1 0 0 1H3.5a.5.5 0 1 0 0-1h-.992zm0 2a.5.5 0 1 0 0 1H3.5a.5.5 0 1 0 0-1h-.992zm0 2a.5.5 0 1 0 0 1H3.5a.5.5 0 1 0 0-1h-.992zm0 2a.5.5 0 1 0 0 1H3.5a.5.5 0 1 0 0-1h-.992zm0 2a.5.5 0 1 0 0 1H3.5a.5.5 0 1 0 0-1h-.992zm0 2a.5.5 0 1 0 0 1H3.5a.5.5 0 1 0 0-1h-.992zm0 2a.5.5 0 1 0 0 1H3.5a.5.5 0 1 0 0-1h-.992zm0 2a.5.5 0 1 0 0 1H3.5a.5.5 0 1 0 0-1h-.992zm0 2a.5.5 0 1 0 0 1H3.5a.5.5 0 1 0 0-1h-.992zm0 2a.5.5 0 1 0 0 1H3.5a.5.5 0 1 0 0-1h-.992zm0 2a.5.5 0 1 0 0 1H3.5a.5.5 0 1 0 0-1h-.992z" color="#000" font-family="sans-serif" font-weight="400" opacity=".15" overflow="visible" style="line-height:normal;text-indent:0;text-align:start;text-decoration-line:none;text-decoration-style:solid;text-decoration-color:#000;text-transform:none;block-progression:tb;isolation:auto;mix-blend-mode:normal" transform="translate(0 -1020.362)"></path><path style="isolation:auto;mix-blend-mode:normal" d="M13.814 1023.362h3.691c1.385 0 2.5 1.115 2.5 2.5v19c0 1.385-1.115 2.5-2.5 2.5H3.006v-24h7.63z" color="#000" opacity=".15" overflow="visible" transform="translate(0 -1020.362)"></path><path fill="#25b39e" d="M14.809 1023.362H18.5c1.385 0 2.5 1.115 2.5 2.5v19c0 1.385-1.115 2.5-2.5 2.5H4v-24h7.63z" color="#000" overflow="visible" style="isolation:auto;mix-blend-mode:normal" transform="translate(0 -1020.362)"></path><path fill="none" stroke="#60c5b8" stroke-linecap="round" stroke-linejoin="round" d="M3.502 5h.993m-.993 2h.993m-.993 2h.993m-.993 2h.993m-.993 2h.993m-.993 2h.993m-.993 2h.993m-.993 2h.993m-.993 2h.993m-.993 2h.993m-.993 2h.993"></path><path d="M26.5 1027.362c-.831 0-1.5.67-1.5 1.5v16.5l1.5 3 .5 1 .5-1 1.5-3v-16.5c0-.83-.669-1.5-1.5-1.5h-1z" color="#000" opacity=".15" overflow="visible" style="isolation:auto;mix-blend-mode:normal" transform="translate(-1 -1020.362)"></path><path fill="#f05542" color="#000" overflow="visible" style="isolation:auto;mix-blend-mode:normal" d="M26 1030.362h4v15h-4z" transform="translate(-1 -1020.362)"></path><path fill="#e9eded" d="M26 1045.362h4l-2 4zm0-15v-1.5c0-.83.669-1.5 1.5-1.5h1c.831 0 1.5.67 1.5 1.5v1.5z" color="#000" overflow="visible" style="isolation:auto;mix-blend-mode:normal" transform="translate(-1 -1020.362)"></path><path fill="none" stroke="#34485c" d="M27 25V11"></path><path fill="#34485c" d="m27.5 1048.362.5 1 .5-1h-1zM26 1030.362h4v1h-4z" color="#000" overflow="visible" style="isolation:auto;mix-blend-mode:normal" transform="translate(-1 -1020.362)"></path><path style="isolation:auto;mix-blend-mode:normal" d="M7 1027.862h10v4.5H7z" color="#000" opacity=".15" overflow="visible" transform="translate(0 -1020.362)"></path><path fill="#576d7e" color="#000" overflow="visible" style="isolation:auto;mix-blend-mode:normal" d="M8.004 1027.862h10v4.5h-10z" transform="translate(0 -1020.362)"></path><path style="isolation:auto;mix-blend-mode:normal" d="M14.009 1023.362h2v27l-1-1-1 1z" color="#000" opacity=".15" overflow="visible" transform="translate(0 -1020.362)"></path><path fill="#f05542" d="M15.004 1023.362h2v27l-1-1-1 1z" color="#000" overflow="visible" style="isolation:auto;mix-blend-mode:normal" transform="translate(0 -1020.362)"></path></svg>