<svg xmlns="http://www.w3.org/2000/svg" width="32" height="32" id="laptop"><path fill="#2a292e" d="m17.996 16.25 10.024 5.788c.42.243.426.847.011 1.098L17.07 29.768v.002c-.5.302-1.126.308-1.631.015L5 23.759l-.41-.243c-.358-.294-.6-.783-.59-1.191v-.784l.823-.784"></path><g fill="#2a292e"><path d="m4.518 8.972 11.337-6.24A.772.772 0 0 1 17 3.41v10.77a1 1 0 0 1-.5.866L4 22.257V9.848a1 1 0 0 1 .518-.876z"></path><path fill-rule="evenodd" d="m16.493 2.682 1.07.531-.772.405z"></path></g><path fill="#eef2fa" d="m5.518 9.472 11.337-6.24A.772.772 0 0 1 18 3.91v10.77a1 1 0 0 1-.5.866L5 22.757V10.348a1 1 0 0 1 .518-.876z"></path><path fill="#6fb7e6" d="m6 10.498 11.007-6.014v10.361L6 21.143z"></path><path fill="#2a292e" fill-rule="evenodd" d="m28.336 22.496-.858-.725.86-.135z"></path><path fill="#3c3b41" d="m17.07 28.767 10.961-6.632a.638.638 0 0 0-.011-1.098l-9.617-5.553a.813.813 0 0 0-.814 0L5 22.757l10.439 6.027a1.603 1.603 0 0 0 1.631-.016z"></path><path fill="#2a292e" d="m12.656 25.586 10.22-5.986a.234.234 0 0 0 .003-.403l-4.526-2.744a.44.44 0 0 0-.448-.003L7.378 22.53a.26.26 0 0 0 .003.451l4.645 2.611a.633.633 0 0 0 .63-.003zm5.63 1.108 3.637-2.095a.183.183 0 0 0 0-.317l-1.953-1.115a.458.458 0 0 0-.455 0l-3.65 2.099a.195.195 0 0 0-.001.337l1.877 1.09a.544.544 0 0 0 .545 0z"></path></svg>