<svg xmlns="http://www.w3.org/2000/svg" viewBox="0 0 64 64" id="math"><polygon fill="#97b2ff" points="50.19 10.83 17.64 1 3.76 46.95 36.3 56.78 50.19 10.83"></polygon><path fill="#80a1ff" d="M37.19,53.84l-.89,2.94L3.76,46.95,17.64,1l3.11,.94-7.21,23.86c-3.19,10.58,2.79,21.74,13.37,24.93l10.28,3.11Z"></path><rect width="16" height="8" x="22.732" y="12.447" fill="#f99c21" transform="rotate(16.811 30.732 16.447)"></rect><path fill="#ed9015" d="M38.12,19.65l-.89,2.94-15.31-4.63,2.31-7.66,3.11,.94-.27,.89c-.63,2.12,.56,4.35,2.68,4.99l8.37,2.53Z"></path><polygon fill="#f4646f" points="61 27.54 58.17 28.54 56.29 29.21 54.4 29.87 54.39 29.87 52.52 30.54 50.63 31.21 48.74 31.87 46.86 32.54 44.97 33.2 43.08 33.87 41.2 34.54 39.32 35.2 35.54 36.54 33.66 37.2 31.77 37.87 29.88 38.53 28 39.2 26.11 39.87 24.22 40.53 22.35 41.2 19.51 42.2 16.85 34.66 58.33 20 61 27.54"></polygon><path fill="#ea535e" d="M61,27.54l-41.49,14.66-2.66-7.54,2.72-.96,.28,.79c.92,2.6,3.77,3.97,6.38,3.05l34.05-12.04,.72,2.04Z"></path><path fill="#f99c21" d="M56.6125,36.8562h0c1.6557,0,3,1.3443,3,3v2c0,1.1038-.8962,2-2,2h-2c-1.1038,0-2-.8962-2-2v-2c0-1.6557,1.3443-3,3-3Z" transform="rotate(50.793 56.612 40.356)"></path><path fill="#ed9015" d="M60,40.04c0,.87-.38,1.73-1.1,2.32l-1.55,1.27c-.86,.7-2.12,.57-2.8199-.29l-1.26-1.55c-.65-.79-.58-1.92,.1-2.64,.06,.12,.13,.23,.22,.34l1.2599,1.55c.7,.86,1.96,.9901,2.82,.29l1.55-1.26c.28-.23,.51-.49,.6801-.79,.0699,.25,.1,.5099,.1,.7599Z"></path><path fill="#ffe9e6" d="M54.13,48.15l-6.11,10.52c-.11,.19-.24,.36-.4,.5l-1.05,.93c-.65,.56-1.58,.66-2.33,.22l-1.35-.78,8.19-14.1,1.62,1.98c.37,.46,.89,.7,1.43,.73Z"></path><path fill="#f9d2cf" d="M47.24,58.32c.26,.16,.54,.24,.83,.26l-.05,.09c-.11,.19-.24,.36-.4,.5l-1.05,.93c-.65,.56-1.58,.66-2.33,.22l-1.35-.78,8.19-14.1,1.07,1.31-5.48,9.44c-.14,.25-.21,.52-.21,.78,0,.54,.28,1.0601,.78,1.35Z"></path><path fill="#ffe9e6" d="M35.06,49.95v-.01l-.49-1.48c-.28-.81,0-1.71,.69-2.23l1.11-.84c.18-.13,.37-.23,.57-.3l11.53-3.8701c-.0699,.54,.07,1.1,.4301,1.55l1.62,1.99-15.46,5.19Z"></path><path fill="#f9d2cf" d="M35.06,49.95v-.01l-.49-1.48c-.28-.81,0-1.71,.69-2.23l1.11-.84c.03-.02,.06-.05,.1-.06,0,.08-.0099,.17-.0099,.25,0,.21,.04,.43,.11,.64,.27,.82,1.15,1.26,1.97,.98l10.98-3.67,1,1.23-15.46,5.19Z"></path><rect width="10" height="4" x="47.351" y="41.833" fill="#f4646f" rx="2" ry="2" transform="rotate(50.793 52.35 43.833)"></rect><path fill="#ea535e" d="M56.23,45.9c.08,.67-.16,1.36-.72,1.81-.37,.3-.81,.45-1.26,.45-.58,0-1.15-.25-1.55-.74l-3.8-4.65c-.69-.85-.57-2.11,.29-2.81,.09-.07,.18-.14,.28-.2,.04,.36,.19,.71,.4301,1.01l3.8,4.65c.4,.49,.97,.74,1.55,.74,.34,0,.68-.09,.98-.2599Z"></path><path fill="#381f32" d="M21.6279,18.9189l15.3164,4.6274c.0947,.0288,.1924,.043,.2891,.043,.1631,0,.3262-.04,.4727-.1187,.2334-.1255,.4082-.3384,.4844-.5923l2.3135-7.6582c.1602-.5283-.1387-1.0864-.668-1.2461l-15.3164-4.6274c-.2549-.0771-.5283-.0493-.7617,.0757-.2334,.1255-.4082,.3384-.4844,.5923l-2.3135,7.6582c-.1602,.5283,.1387,1.0864,.668,1.2461Zm3.2705-7.3687l13.4023,4.0488-1.7354,5.7437-13.4023-4.0488,1.7354-5.7437Z"></path><path fill="#381f32" d="M61.9434,27.21l-2.665-7.543c-.0889-.25-.2725-.4551-.5127-.5693-.2383-.1143-.5156-.1274-.7637-.0405l-10.3628,3.6618,3.5083-11.5993c.0771-.2539,.0498-.5278-.0752-.7617-.126-.2339-.3389-.4082-.5928-.4854L17.9287,.0425c-.5312-.1562-1.0869,.1396-1.2461,.6685l-.8675,2.8719-.9577-.2894c-.5283-.1611-1.0859,.1392-1.2461,.668-.1602,.5283,.1387,1.0864,.668,1.2461l.9576,.2894-.5783,1.9145-.9575-.2894c-.5303-.1567-1.0869,.1396-1.2461,.6685-.1602,.5288,.1396,1.0864,.668,1.2461l.9573,.2892-.5784,1.9149-.958-.2896c-.5312-.1577-1.0869,.1396-1.2461,.6685-.1602,.5288,.1396,1.0864,.668,1.2461l.9579,.2894-.5784,1.9149-.9586-.2897c-.5293-.1567-1.0869,.1396-1.2461,.6685-.1602,.5288,.1396,1.0864,.668,1.2461l.9584,.2896-.5784,1.9146-.9582-.2896c-.5312-.1577-1.0869,.1396-1.2461,.6685-.1602,.5288,.1396,1.0864,.668,1.2461l.9581,.2894-.5784,1.9149-.9587-.2897c-.5293-.1562-1.0869,.1396-1.2461,.6685-.1602,.5288,.1396,1.0864,.668,1.2461l.9586,.2896-.5784,1.9149-.9593-.2899c-.5303-.1577-1.0869,.1396-1.2461,.6685-.1602,.5288,.1396,1.0864,.668,1.2461l.9592,.2897-.5784,1.9146-.9589-.2898c-.5293-.1562-1.0879,.1396-1.2461,.6685-.1602,.5288,.1396,1.0864,.668,1.2461l.9588,.2897-.5784,1.9149-.9595-.29c-.5303-.1572-1.0869,.1396-1.2461,.6685-.1602,.5288,.1396,1.0864,.668,1.2461l.9594,.2898-.5783,1.9146-.9592-.2899c-.5293-.1616-1.0859,.1392-1.2461,.668-.1602,.5283,.1387,1.0864,.668,1.2461l.9591,.2899-.5786,1.9152-.9597-.29c-.5293-.1602-1.0859,.1392-1.2461,.668-.1602,.5283,.1387,1.0864,.668,1.2461l.9597,.29-.8679,2.873c-.1602,.5288,.1396,1.0864,.668,1.2461l32.54,9.8296c.0967,.0293,.1934,.0435,.2891,.0435,.4297,0,.8262-.2788,.957-.7104l2.2937-7.575,.5039-.1692,4.4457,5.4489-4.4797,7.7234c-.2773,.4775-.1143,1.0898,.3633,1.3667,.1582,.0918,.3311,.1353,.501,.1353,.3447,0,.6807-.1782,.8662-.498l1.5051-2.5932,.4832,.2807c.4697,.272,.9893,.4058,1.5059,.4058,.7129,0,1.4209-.2549,1.9834-.7495l1.0469-.9229c.2432-.2139,.4492-.4648,.6133-.7461l5.8371-10.0607c.5043-.0807,.995-.2892,1.4188-.6342,1.0716-.8748,1.3687-2.339,.8293-3.5458,.3561-.1105,.6986-.2827,1.0047-.5323l1.5498-1.2642c.8281-.6758,1.3428-1.6328,1.4512-2.6958,.1074-1.063-.2051-2.1045-.8799-2.9316-1.3936-1.709-3.917-1.9668-5.6279-.5718l-1.5498,1.2646c-.3058,.2495-.5453,.5493-.7251,.8755-.421-.3032-.9093-.5032-1.4399-.5571-.79-.0767-1.5771,.1538-2.1982,.6602-.4132,.3369-.7109,.7726-.8957,1.2579l-5.9871,2.0076,2.3721-7.8553,9.7414-3.4423h.0007l.0005-.0004,7.5424-2.6652c.5205-.1841,.7939-.7554,.6104-1.2759Zm-26.25,21.4702l-.1787-.5332c-.1367-.4087,.002-.8574,.3447-1.1167l1.1162-.8413c.0869-.0649,.1816-.1152,.2842-.1494l10.3949-3.4854c.1135,.3029,.2648,.5927,.4752,.8506l.7045,.8636-13.1411,4.4117Zm6.3868-.0347l7.4285-2.4941-3.9354,6.7756-3.4932-4.2814Zm5.079,9.5269c-.0547,.0938-.124,.1777-.2051,.249l-1.0479,.9233c-.3232,.2832-.791,.3306-1.1631,.1147l-.4863-.2827,2.3354-4.0211,.0076-.0131,4.6184-7.952,.7046,.8636c.2131,.2612,.4694,.4606,.7406,.6301l-5.5043,9.4881Zm7.0264-18.4175l1.5498-1.2646c.4141-.3379,.9326-.4946,1.4668-.4399,.5312,.0542,1.0098,.3115,1.3477,.7261,.3379,.4136,.4941,.9341,.4395,1.4658-.0537,.5312-.3115,1.0103-.7246,1.3477l-1.5498,1.2642c-.4277,.3472-1.0585,.2852-1.4072-.142l-.0795-.0975-1.1852-1.4529c-.3477-.4272-.2842-1.0581,.1426-1.4067Zm-3.7334,.7534c.0342,0,.0684,.0015,.1025,.0049,.2666,.0273,.5059,.1562,.6748,.3633l1.262,1.5468,.0016,.0025,1.2637,1.5498,.001,.0005,.0029,.0028,1.2618,1.5465c.3477,.4272,.2842,1.0581-.1426,1.4067-.4277,.3496-1.0605,.2852-1.4082-.1426l-3.793-4.6494c-.168-.2065-.2461-.4668-.2197-.7329,.0273-.2656,.1562-.5049,.3643-.6738,.1797-.147,.3994-.2251,.6289-.2251Zm-13.8281,3.6348c-.3076,.103-.5947,.2544-.8525,.4497l-1.1162,.8408c-1.0312,.7783-1.4473,2.124-1.0371,3.3491l.1779,.5303-2.8429,.9536c-.5234,.1758-.8057,.7427-.6299,1.2661,.1406,.4185,.5303,.6826,.9482,.6826,.1055,0,.2129-.0171,.3184-.0522l3.772-1.2653c.0065-.0021,.0135-.0011,.02-.0033l1.8427-.6187-1.5917,5.2578L5.0059,46.2822l.5787-1.9157,.9555,.2888c.0967,.0293,.1934,.0435,.2891,.0435,.4297,0,.8262-.2788,.957-.7114,.1602-.5283-.1387-1.0864-.668-1.2461l-.9554-.2888,.5785-1.9152,.9561,.2889c.0967,.0293,.1934,.0435,.2891,.0435,.4297,0,.8262-.2788,.957-.7114,.1602-.5283-.1387-1.0864-.668-1.2461l-.956-.2889,.5784-1.9148,.9557,.2887c.0967,.0293,.1934,.0435,.2891,.0435,.4297,0,.8271-.2788,.957-.7114,.1602-.5288-.1396-1.0864-.668-1.2461l-.9556-.2888,.5785-1.9151,.9562,.2889c.0967,.0293,.1934,.0435,.2891,.0435,.4297,0,.8271-.2788,.957-.7114,.1602-.5288-.1396-1.0864-.668-1.2461l-.9562-.2889,.5784-1.9149,.9559,.2888c.0967,.0293,.1934,.0435,.2891,.0435,.4297,0,.8271-.2788,.957-.7114,.1602-.5288-.1396-1.0864-.668-1.2461l-.9558-.2889,.5785-1.9151,.9564,.2889c.0967,.0293,.1934,.0435,.2891,.0435,.4297,0,.8271-.2788,.957-.7114,.1602-.5288-.1396-1.0864-.668-1.2461l-.9563-.289,.5785-1.9151,.9569,.2891c.0967,.0293,.1934,.0435,.2891,.0435,.4297,0,.8271-.2788,.957-.7114,.1602-.5288-.1396-1.0864-.668-1.2461l-.9568-.2892,.5784-1.9148,.9565,.2889c.0967,.0293,.1934,.0435,.2891,.0435,.4297,0,.8271-.2788,.957-.7114,.1602-.5288-.1396-1.0864-.668-1.2461l-.9565-.2891,.5785-1.9151,.9571,.2891c.0967,.0293,.1934,.0435,.2891,.0435,.4297,0,.8271-.2788,.957-.7114,.1602-.5288-.1396-1.0864-.668-1.2461l-.957-.2892,.5785-1.9151,.9576,.2893c.0967,.0293,.1934,.0435,.2891,.0435,.4297,0,.8271-.2788,.957-.7114,.1602-.5288-.1396-1.0864-.668-1.2461l-.9575-.2894,.5783-1.9145,.9573,.2893c.0967,.0293,.1934,.0435,.2891,.0435,.4297,0,.8262-.2788,.957-.7114,.1602-.5283-.1387-1.0864-.668-1.2461l-.9573-.2893,.5784-1.9148,30.6357,9.2515-3.6434,12.0475-28.7843,10.1713c-.5205,.1841-.7939,.7554-.6104,1.2759l2.665,7.543c.0889,.25,.2725,.4551,.5127,.5693,.1357,.0649,.2832,.0977,.4307,.0977,.1123,0,.2256-.019,.333-.0571l3.7705-1.3323,.001-.0002,.0007-.0004,7.542-2.665h.0002l.0002-.0002,3.7701-1.3322,.0012-.0002,.0009-.0005,6.7762-2.3945-2.358,7.8085-2.7278,.9147Zm21.2147-16.5439l-.3329-.9424c-.1846-.52-.7539-.7939-1.2764-.6099-.5205,.1841-.7939,.7554-.6104,1.2759l.3331,.9431-1.8851,.6661-.3328-.9422c-.1846-.5205-.7529-.793-1.2764-.6099-.5205,.1841-.7939,.7554-.6104,1.2759l.333,.9428-1.8849,.6661-.3328-.9424c-.1846-.52-.752-.7939-1.2764-.6099-.5205,.1841-.7939,.7554-.6104,1.2759l.3331,.943-1.8849,.6661-.3329-.9426c-.1846-.5205-.7539-.7949-1.2764-.6099-.5205,.1841-.7939,.7554-.6104,1.2759l.3331,.9432-1.8851,.6661-.3328-.9423c-.1836-.52-.7529-.7939-1.2764-.6099-.5205,.1841-.7939,.7554-.6104,1.2759l.333,.9429-1.8849,.6661-.3329-.9425c-.1846-.5205-.7539-.7949-1.2764-.6099-.5205,.1841-.7939,.7554-.6104,1.2759l.3331,.9431-1.8851,.6661-.3328-.9423c-.1846-.52-.7529-.7944-1.2764-.6099-.5205,.1841-.7939,.7554-.6104,1.2759l.333,.9429-1.8849,.6661-.3329-.9424c-.1846-.5205-.7549-.7949-1.2764-.6099-.5205,.1841-.7939,.7554-.6104,1.2759l.3331,.9431-1.8849,.6661-.3329-.9426c-.1846-.52-.7539-.7939-1.2764-.6099-.5205,.1841-.7939,.7554-.6104,1.2759l.3331,.9432-1.8851,.6661-.3328-.9424c-.1846-.5205-.7529-.7954-1.2764-.6099-.5205,.1841-.7939,.7554-.6104,1.2759l.3331,.943-1.8858,.6664-1.998-5.6572,39.6006-13.9937,1.998,5.6572-1.8849,.6661Z"></path></svg>