<svg xmlns="http://www.w3.org/2000/svg" enable-background="new 0 0 1000 1000" viewBox="0 0 1000 1000" id="designer-essential-tools"><path fill="#ffb600" d="M0 0h1000v1000H0z"></path><g opacity=".3"><path fill="#2d2d2d" stroke="#2d2d2d" stroke-linecap="round" stroke-linejoin="round" stroke-miterlimit="10" stroke-width="8" d="M430.341 388.822h42v246.5h-42z"></path><path fill="#2d2d2d" stroke="#2d2d2d" stroke-linecap="round" stroke-linejoin="round" stroke-miterlimit="10" stroke-width="8" d="M424.675 635.161h53.333v30h-53.333zM463.671 691h-24.658a8.67 8.67 0 0 1-8.671-8.671v-17.168h42v17.168a8.672 8.672 0 0 1-8.671 8.671zM472.341 388.822h-42l21-66.489z"></path></g><g opacity=".3"><path fill="#2d2d2d" stroke="#2d2d2d" stroke-linecap="round" stroke-linejoin="round" stroke-miterlimit="10" stroke-width="8" d="M564.893 482.499h37.333v212h-37.333zM559.56 339.499h48v143h-48z"></path><path fill="#2d2d2d" stroke="#2d2d2d" stroke-linecap="round" stroke-linejoin="round" stroke-miterlimit="10" stroke-width="8" d="M602.226 339.499h-37.333v-2.335c0-10.309 8.357-18.667 18.667-18.667h0c10.309 0 18.667 8.357 18.667 18.667v2.335zM545.712 361.871v89.325M559.557 376.332h-13.845M597.81 694.499c0 7.87-6.38 14.25-14.25 14.25s-14.25-6.38-14.25-14.25h28.5z"></path></g><path fill="#00b3c6" d="M555.893 472.499h37.333v212h-37.333z"></path><path fill="#00b3c6" d="M579.667 472.499h13.56v212h-13.56z" opacity=".5"></path><path fill="#00b3c6" d="M555.893 472.499h13.416v212h-13.416z" opacity=".35"></path><path fill="none" stroke="#330e00" stroke-linecap="round" stroke-linejoin="round" stroke-miterlimit="10" stroke-width="8" d="M555.893 472.499h37.333v212h-37.333z"></path><path fill="#565656" d="M550.56 329.499h48v143h-48z"></path><path fill="#565656" d="M550.56 329.499h14.333v143H550.56zM583.56 329.499h14.333v143H583.56z" opacity=".27"></path><path fill="none" stroke="#330e00" stroke-linecap="round" stroke-linejoin="round" stroke-miterlimit="10" stroke-width="8" d="M550.56 329.499h48v143h-48z"></path><path fill="#00b3c6" d="M593.226 329.499h-37.333v-2.335c0-10.309 8.357-18.667 18.667-18.667 10.309 0 18.667 8.357 18.667 18.667v2.335z"></path><path fill="none" stroke="#330e00" stroke-linecap="round" stroke-linejoin="round" stroke-miterlimit="10" stroke-width="8" d="M593.226 329.499h-37.333v-2.335c0-10.309 8.357-18.667 18.667-18.667h0c10.309 0 18.667 8.357 18.667 18.667v2.335zM536.712 351.871v89.325M550.557 366.332h-13.845"></path><path fill="#565656" d="M588.81 684.499c0 7.87-6.38 14.25-14.25 14.25s-14.25-6.38-14.25-14.25h28.5z"></path><path fill="none" stroke="#330e00" stroke-linecap="round" stroke-linejoin="round" stroke-miterlimit="10" stroke-width="8" d="M588.81 684.499c0 7.87-6.38 14.25-14.25 14.25s-14.25-6.38-14.25-14.25h28.5z"></path><path fill="#ff1f1f" d="M419.341 376.822h42v246.5h-42z"></path><path fill="none" stroke="#330e00" stroke-linecap="round" stroke-linejoin="round" stroke-miterlimit="10" stroke-width="8" d="M419.341 376.822h42v246.5h-42z"></path><path fill="none" stroke="#330e00" stroke-linecap="round" stroke-linejoin="round" stroke-miterlimit="10" stroke-width="8" d="M433.02 376.822h14.642v246.5H433.02z"></path><path fill="#fdd2a7" d="M413.675 623.161h53.333v30h-53.333z"></path><path fill="#fdd2a7" d="M451.341 623.161h15.667v30h-15.667z" opacity=".5"></path><path fill="#fdd2a7" d="M413.675 623.161H428v30h-14.325z"></path><path fill="none" stroke="#330e00" stroke-linecap="round" stroke-linejoin="round" stroke-miterlimit="10" stroke-width="8" d="M413.675 623.161h53.333v30h-53.333z"></path><path fill="#3babff" d="M452.671 679h-24.658a8.67 8.67 0 0 1-8.671-8.671v-17.168h42v17.168a8.672 8.672 0 0 1-8.671 8.671z"></path><path fill="none" stroke="#330e00" stroke-linecap="round" stroke-linejoin="round" stroke-miterlimit="10" stroke-width="8" d="M452.671 679h-24.658a8.67 8.67 0 0 1-8.671-8.671v-17.168h42v17.168a8.672 8.672 0 0 1-8.671 8.671z"></path><path fill="#fdd2a7" d="M461.341 376.822h-42l21-66.489z"></path><path fill="none" stroke="#330e00" stroke-linecap="round" stroke-linejoin="round" stroke-miterlimit="10" stroke-width="8" d="M461.341 376.822h-42l21-66.489z"></path><path fill="#330e00" d="m440.341 310.333-8.896 28.166h17.792z"></path><path fill="#2d2d2d" stroke="#2d2d2d" stroke-linecap="round" stroke-linejoin="round" stroke-miterlimit="10" stroke-width="8" d="M189.652 520.991c-14.765-20.86-38.302-29.581-52.573-19.48s-13.87 35.199.894 56.059c12.897 18.221 32.486 27.178 46.747 22.421l61.507 98.116c5.242 8.213 13.391 9.47 19.493 5.15 6.102-4.319 7.627-12.423 1.623-20.097l-72.087-90.627c9.227-11.868 7.292-33.321-5.604-51.542z" opacity=".3"></path><circle cx="245.932" cy="498.315" r="126" fill="#2d2d2d" stroke="#2d2d2d" stroke-linecap="round" stroke-linejoin="round" stroke-miterlimit="10" stroke-width="8" opacity=".3"></circle><circle cx="233.932" cy="486.315" r="126" fill="#fff"></circle><path fill="silver" stroke="silver" stroke-linecap="round" stroke-linejoin="round" stroke-miterlimit="10" stroke-width="8" d="M182.256 550.534c9.227-11.869 7.292-33.322-5.605-51.542-14.765-20.859-66.443 15.719-51.679 36.579 12.897 18.221 32.486 27.178 46.747 22.421l29.822 47.573a125.736 125.736 0 0 0 28.143 4.597l-47.428-59.628zM348.2 515.315h-31.984v-32H348.2a8.016 8.016 0 0 1 8.016 8.016V507.3a8.015 8.015 0 0 1-8.016 8.015z"></path><circle cx="236.932" cy="499.315" r="79" fill="silver" stroke="silver" stroke-linecap="round" stroke-linejoin="round" stroke-miterlimit="10" stroke-width="8"></circle><circle cx="233.932" cy="486.315" r="126" fill="none" stroke="#330e00" stroke-linecap="round" stroke-linejoin="round" stroke-miterlimit="10" stroke-width="8"></circle><path fill="#fff" d="M173.652 508.991c-14.765-20.86-38.302-29.581-52.573-19.48s-13.87 35.199.894 56.059c12.897 18.221 32.486 27.178 46.747 22.421l61.507 98.116c5.242 8.213 13.391 9.47 19.493 5.15s7.627-12.423 1.623-20.097l-72.087-90.627c9.227-11.868 7.292-33.321-5.604-51.542z"></path><path fill="silver" stroke="silver" stroke-linecap="round" stroke-linejoin="round" stroke-miterlimit="10" stroke-width="8" d="M180.386 556.673c2.934-12.964-3.055-28.596-12.228-43.793-5.357-8.875-10.092-16.036-17.287-21.094.002 25.894 11.905 48.476 29.515 64.887z"></path><path fill="none" stroke="#330e00" stroke-linecap="round" stroke-linejoin="round" stroke-miterlimit="10" stroke-width="4" d="M136.07 545.599a55.325 55.325 0 0 1-4.482-5.54c-6.56-9.268-9.795-19.886-9.439-28.424"></path><path fill="none" stroke="#330e00" stroke-linecap="round" stroke-linejoin="round" stroke-miterlimit="10" stroke-width="8" d="M173.652 508.991c-14.765-20.86-38.302-29.581-52.573-19.48s-13.87 35.199.894 56.059c12.897 18.221 32.486 27.178 46.747 22.421l61.507 98.116c5.242 8.213 13.391 9.47 19.493 5.15s7.627-12.423 1.623-20.097l-72.087-90.627c9.227-11.868 7.292-33.321-5.604-51.542z"></path><path fill="#fff" d="M345.2 502.315h-38.57v-32h38.57a8.016 8.016 0 0 1 8.016 8.016V494.3a8.015 8.015 0 0 1-8.016 8.015z"></path><path fill="none" stroke="#330e00" stroke-linecap="round" stroke-linejoin="round" stroke-miterlimit="10" stroke-width="8" d="M345.2 502.315h-38.57v-32h38.57a8.016 8.016 0 0 1 8.016 8.016V494.3a8.015 8.015 0 0 1-8.016 8.015z"></path><circle cx="233.932" cy="486.315" r="79" fill="#fff"></circle><circle cx="233.932" cy="486.315" r="79" fill="none" stroke="#330e00" stroke-linecap="round" stroke-linejoin="round" stroke-miterlimit="10" stroke-width="8"></circle><circle cx="233.932" cy="486.315" r="63.315" fill="#330e00"></circle><path fill="none" stroke="#fff" stroke-linecap="round" stroke-miterlimit="10" stroke-width="5" d="M240.342 436.363c25.366 3.099 45.078 24.772 45.078 50.962 0 28.31-23.032 51.342-51.342 51.342-19.795 0-37.009-11.261-45.574-27.712M236.629 449.986c15.411 3.162 27.858 14.555 32.526 29.366"></path><path fill="none" stroke="#330e00" stroke-linecap="round" stroke-linejoin="round" stroke-miterlimit="10" stroke-width="6" d="M569.667 585.499v80.834"></path><path fill="none" stroke="#330e00" stroke-linecap="round" stroke-linejoin="round" stroke-miterlimit="10" stroke-width="8" d="M555.893 472.499h37.333v212h-37.333zM550.56 329.499h48v143h-48z"></path><path fill="none" stroke="#330e00" stroke-linecap="round" stroke-linejoin="round" stroke-miterlimit="10" stroke-width="8" d="M593.226 329.499h-37.333v-2.335c0-10.309 8.357-18.667 18.667-18.667h0c10.309 0 18.667 8.357 18.667 18.667v2.335zM536.712 351.871v89.325M550.557 366.332h-13.845M588.81 684.499c0 7.87-6.38 14.25-14.25 14.25s-14.25-6.38-14.25-14.25h28.5z"></path><g opacity=".3"><path fill="#2d2d2d" stroke="#2d2d2d" stroke-linecap="round" stroke-linejoin="round" stroke-miterlimit="10" stroke-width="8" d="m722.964 681.36-48.541-35.267c-8.043-5.843-9.825-17.1-3.982-25.142l159.878-220.053c5.843-8.043 17.1-9.825 25.142-3.982l48.541 35.267c8.043 5.843 9.825 17.1 3.982 25.142L748.107 677.378c-5.844 8.042-17.1 9.825-25.143 3.982z"></path><path fill="#2d2d2d" stroke="#2d2d2d" stroke-linecap="round" stroke-linejoin="round" stroke-miterlimit="10" stroke-width="8" d="M745.135 653.62h-60c-9.941 0-18-8.059-18-18v-272c0-9.941 8.059-18 18-18h60c9.941 0 18 8.059 18 18v272c0 9.942-8.059 18-18 18z"></path><path fill="#2d2d2d" stroke="#2d2d2d" stroke-linecap="round" stroke-linejoin="round" stroke-miterlimit="10" stroke-width="8" d="m737.818 668.802-57.676-16.538c-9.556-2.74-15.081-12.708-12.341-22.264l74.973-261.463c2.74-9.556 12.708-15.081 22.264-12.341l57.676 16.538c9.556 2.74 15.081 12.708 12.341 22.264L760.082 656.46c-2.74 9.556-12.708 15.082-22.264 12.342z"></path></g><path fill="#fff" d="m717.964 665.36-48.541-35.267c-8.043-5.843-9.825-17.1-3.982-25.142l159.878-220.053c5.843-8.043 17.1-9.825 25.142-3.982l48.541 35.267c8.043 5.843 9.825 17.1 3.982 25.142L743.107 661.378c-5.844 8.042-17.1 9.825-25.143 3.982z"></path><path fill="none" stroke="#330e00" stroke-linecap="round" stroke-linejoin="round" stroke-miterlimit="10" stroke-width="8" d="m717.964 665.36-48.541-35.267c-8.043-5.843-9.825-17.1-3.982-25.142l159.878-220.053c5.843-8.043 17.1-9.825 25.142-3.982l48.541 35.267c8.043 5.843 9.825 17.1 3.982 25.142L743.107 661.378c-5.844 8.042-17.1 9.825-25.143 3.982z"></path><path fill="none" stroke="#330e00" stroke-linecap="round" stroke-linejoin="round" stroke-miterlimit="10" stroke-width="8" d="m797.183 586.948-77.666-56.427 105.801-145.623c5.843-8.043 17.1-9.825 25.142-3.982l48.541 35.267c8.043 5.843 9.825 17.1 3.982 25.142l-105.8 145.623z"></path><path fill="#8c6239" d="m874.77 480.158-77.666-56.427 28.214-38.833c5.843-8.043 17.1-9.825 25.142-3.982l48.541 35.267c8.043 5.843 9.825 17.1 3.982 25.142l-28.213 38.833z"></path><path fill="none" stroke="#330e00" stroke-linecap="round" stroke-linejoin="round" stroke-miterlimit="10" stroke-width="8" d="m874.77 480.158-77.666-56.427 28.214-38.833c5.843-8.043 17.1-9.825 25.142-3.982l48.541 35.267c8.043 5.843 9.825 17.1 3.982 25.142l-28.213 38.833z"></path><path fill="#42210b" d="M729.747 499.037h96v66h-96z" transform="rotate(36.002 777.733 532.006)"></path><path fill="#603813" d="M768.541 445.642h96v66h-96z" transform="rotate(36.002 816.524 478.612)"></path><path fill="none" stroke="#330e00" stroke-linecap="round" stroke-linejoin="round" stroke-miterlimit="10" stroke-width="8" d="M768.541 445.642h96v66h-96z" transform="rotate(36.002 816.524 478.612)"></path><path fill="none" stroke="#330e00" stroke-linecap="round" stroke-linejoin="round" stroke-miterlimit="10" stroke-width="8" d="M729.747 499.037h96v66h-96z" transform="rotate(36.002 777.733 532.006)"></path><circle cx="687.257" cy="614.62" r="8" fill="none" stroke="#330e00" stroke-linecap="round" stroke-linejoin="round" stroke-miterlimit="10" stroke-width="8"></circle><path fill="#2d2d2d" stroke="#2d2d2d" stroke-linecap="round" stroke-linejoin="round" stroke-miterlimit="10" stroke-width="8" d="m824.714 360.733-57.676-16.538c-9.556-2.74-19.524 2.785-22.264 12.341l-74.973 261.463c-2.74 9.556 2.785 19.524 12.341 22.264l52.608-3.013c.465.133 4.919.276 5.385.37h4.783l7.68-.828a20.13 20.13 0 0 0 17.221-14.567l67.237-239.229c2.74-9.555-2.786-19.523-12.342-22.263z" opacity=".3"></path><path fill="#fff" d="m732.818 652.802-57.676-16.538c-9.556-2.74-15.081-12.708-12.341-22.264l74.973-261.463c2.74-9.556 12.708-15.081 22.264-12.341l57.676 16.538c9.556 2.74 15.081 12.708 12.341 22.264L755.082 640.46c-2.74 9.556-12.708 15.082-22.264 12.342z"></path><path fill="none" stroke="#330e00" stroke-linecap="round" stroke-linejoin="round" stroke-miterlimit="10" stroke-width="8" d="m732.818 652.802-57.676-16.538c-9.556-2.74-15.081-12.708-12.341-22.264l74.973-261.463c2.74-9.556 12.708-15.081 22.264-12.341l57.676 16.538c9.556 2.74 15.081 12.708 12.341 22.264L755.082 640.46c-2.74 9.556-12.708 15.082-22.264 12.342z"></path><path fill="#bd3f3a" d="m816.825 425.138-92.281-26.461 13.231-46.141c2.74-9.556 12.708-15.081 22.264-12.341l57.676 16.538c9.556 2.74 15.081 12.708 12.341 22.264l-13.231 46.141z"></path><path fill="none" stroke="#330e00" stroke-linecap="round" stroke-linejoin="round" stroke-miterlimit="10" stroke-width="8" d="m780.441 552.024-92.281-26.461 49.615-173.027c2.74-9.556 12.708-15.081 22.264-12.341l57.676 16.538c9.556 2.74 15.081 12.708 12.341 22.264l-49.615 173.027z"></path><path fill="#a33500" d="M713.588 410.629h96v66h-96z" transform="rotate(15.997 761.684 443.708)"></path><path fill="none" stroke="#330e00" stroke-linecap="round" stroke-linejoin="round" stroke-miterlimit="10" stroke-width="8" d="M713.588 410.629h96v66h-96z" transform="rotate(15.997 761.684 443.708)"></path><path fill="#6d2300" d="M695.396 474.072h96v66h-96z" transform="rotate(15.997 743.488 507.16)"></path><path fill="none" stroke="#330e00" stroke-linecap="round" stroke-linejoin="round" stroke-miterlimit="10" stroke-width="8" d="M695.396 474.072h96v66h-96z" transform="rotate(15.997 743.488 507.16)"></path><circle cx="686.609" cy="615.624" r="8" fill="none" stroke="#330e00" stroke-linecap="round" stroke-linejoin="round" stroke-miterlimit="10" stroke-width="8"></circle><path fill="#2d2d2d" stroke="#2d2d2d" stroke-linecap="round" stroke-linejoin="round" stroke-miterlimit="10" stroke-width="8" d="M748.135 641.62h-60c-9.941 0-18-8.059-18-18v-272c0-9.941 8.059-18 18-18h60c9.941 0 18 8.059 18 18v272c0 9.942-8.059 18-18 18z" opacity=".3"></path><path fill="#fff" d="M740.135 637.62h-60c-9.941 0-18-8.059-18-18v-272c0-9.941 8.059-18 18-18h60c9.941 0 18 8.059 18 18v272c0 9.942-8.059 18-18 18z"></path><path fill="none" stroke="#330e00" stroke-linecap="round" stroke-linejoin="round" stroke-miterlimit="10" stroke-width="8" d="M740.135 637.62h-60c-9.941 0-18-8.059-18-18v-272c0-9.941 8.059-18 18-18h60c9.941 0 18 8.059 18 18v272c0 9.942-8.059 18-18 18z"></path><path fill="none" stroke="#330e00" stroke-linecap="round" stroke-linejoin="round" stroke-miterlimit="10" stroke-width="8" d="M758.135 527.62h-96v-180c0-9.941 8.059-18 18-18h60c9.941 0 18 8.059 18 18v180z"></path><path fill="#f99" d="M758.135 395.62h-96v-48c0-9.941 8.059-18 18-18h60c9.941 0 18 8.059 18 18v48z"></path><path fill="none" stroke="#330e00" stroke-linecap="round" stroke-linejoin="round" stroke-miterlimit="10" stroke-width="8" d="M758.135 395.62h-96v-48c0-9.941 8.059-18 18-18h60c9.941 0 18 8.059 18 18v48z"></path><path fill="red" d="M662.135 395.62h96v66h-96z"></path><path fill="#f33" stroke="#330e00" stroke-linecap="round" stroke-linejoin="round" stroke-miterlimit="10" stroke-width="8" d="M662.135 395.62h96v66h-96z"></path><path fill="#bf0000" d="M662.135 461.62h96v66h-96z"></path><path fill="none" stroke="#330e00" stroke-linecap="round" stroke-linejoin="round" stroke-miterlimit="10" stroke-width="8" d="M662.135 461.62h96v66h-96z"></path><circle cx="685.468" cy="614.62" r="8" fill="none" stroke="#330e00" stroke-linecap="round" stroke-linejoin="round" stroke-miterlimit="10" stroke-width="8"></circle><path fill="#330e00" d="M676.294 544.228h-1.702v2.905h-.845v-6.815h2.547c1.955 0 2.848.839 2.848 1.96 0 1.101-.869 1.95-2.848 1.95zm0-.585c1.424 0 1.979-.527 1.979-1.365 0-.878-.556-1.385-1.979-1.385h-1.702v2.75h1.702zM685.61 545.515h-3.838l-.736 1.618h-.894l3.078-6.728h.954l3.065 6.728h-.894l-.735-1.618zm-1.919-4.252-1.665 3.687h3.331l-1.666-3.687zM695.12 540.317v6.815h-.845l-4.671-5.733v5.733h-.845v-6.815h.845l4.671 5.724v-5.724h.845zM696.604 540.317h5.54v.565h-2.342v6.25h-.845v-6.25h-2.354v-.565zM707.441 547.201c-2.366 0-4.177-1.434-4.177-3.481 0-2.037 1.811-3.48 4.177-3.48 2.377 0 4.176 1.443 4.176 3.48 0 2.048-1.799 3.481-4.176 3.481zm0-.595c1.87 0 3.307-1.102 3.307-2.887 0-1.784-1.437-2.876-3.307-2.876-1.871 0-3.308 1.092-3.308 2.876.001 1.786 1.437 2.887 3.308 2.887zM719.69 540.317v6.815h-.845l-4.671-5.733v5.733h-.845v-6.815h.845l4.671 5.724v-5.724h.845zM726.183 540.873h-3.561v2.545h3.198v.565h-3.198v2.584h3.561v.565h-4.405v-6.825h4.405v.566zM728.373 540.199h1.563v.238h-.63v2.006h-.301v-2.006h-.633v-.238zM730.352 540.216h.324l.848 1.841.848-1.841h.321v2.228h-.301v-1.661l-.762 1.661h-.212l-.765-1.664v1.664h-.302v-2.228z"></path></svg>