<svg xmlns="http://www.w3.org/2000/svg" xmlns:xlink="http://www.w3.org/1999/xlink" width="1104" height="906" viewBox="0 0 1104 906">
  <defs>
    <clipPath id="clip-path">
      <rect id="Rectangle_178" data-name="Rectangle 178" width="1104" height="906" transform="translate(4692 -1741)" fill="#fff" stroke="#707070" stroke-width="1"/>
    </clipPath>
  </defs>
  <g id="blob-text-banner-dt" transform="translate(-4692 1741)" clip-path="url(#clip-path)">
    <path id="Path_252" data-name="Path 252" d="M522.878-128.673c74.3,50.04,152.6,91.868,192.9,157.761,40.3,65.7,42.783,155.469,25.784,239.315-16.807,83.655-53.1,161.581-102.373,240.27-49.467,78.69-111.923,157.952-182.017,151.076S309.347,559.86,202.2,540.379s-243.517,34.761-349.137,8.786C-252.366,523.19-327.045,417-336.595,305.647c-9.55-111.159,46.221-227.665,134.269-291.457C-114.278-49.792,6.048-60.87,96.389-103.653S247.083-220.923,312.4-228.945s135.988,50.231,210.475,100.272" transform="matrix(0.998, 0.07, -0.07, 0.998, 5053.883, -1531.315)" fill="#71cff9"/>
  </g>
</svg>
