<svg xmlns="http://www.w3.org/2000/svg" enable-background="new 0 0 1088.7 607.2" viewBox="0 0 1088.7 607.2" id="laptop-plants-and-pictures-floating-in-galaxy-like-dreaming"><path fill="#f8f8ff" d="M25.4 258.3c-12.4-57.4 13.6-121.9 68-144 42.8-17.4 108.3-23.2 196-2 232 56 212-8 302-58 79.2-44 176-98 344 4 127.4 77.4 52 198 138 272 55.3 47.6-38 278-306 228s-328.7 20.2-450 46c-122 26-373.9-128.7-306-200 40-42 21.8-110 14-146z"></path><path fill="#f5f5fc" d="M94.9 272.3c-10.6-49.3 11.7-104.8 58.5-123.8 36.8-15 93.1-19.9 168.5-1.7 199.4 48.1 182.2-6.9 259.6-49.9 68.1-37.8 151.3-84.2 295.7 3.4 109.5 66.5 44.7 170.2 118.6 233.8 47.5 40.9-32.7 239-263 196S450.3 547.4 346 569.6C241 592 24.4 459.1 82.8 397.8c34.4-36.1 18.7-94.5 12.1-125.5z"></path><path fill="#bac6f2" d="M172.7 275.4c-9.1-42.2 10-89.7 50-106 31.5-12.8 79.7-17 144.3-1.5 170.8 41.2 156-5.9 222.3-42.7 58.3-32.4 129.5-72.1 253.2 2.9 93.8 56.9 38.3 145.7 101.6 200.2 40.7 35-28 204.6-225.2 167.8S476.9 511 387.6 530c-89.8 19.1-275.2-94.7-225.2-147.2 29.5-30.9 16-80.9 10.3-107.4z"></path><circle cx="204.4" cy="300.3" r="8" fill="#fff"></circle><circle cx="266.9" cy="251.8" r="4.5" fill="#fff"></circle><circle cx="282.4" cy="373.3" r="5" fill="#fff"></circle><circle cx="239.9" cy="442.8" r="5.5" fill="#fff"></circle><circle cx="366.9" cy="465.8" r="5.5" fill="#fff"></circle><circle cx="604.4" cy="463.3" r="6" fill="#fff"></circle><circle cx="702.9" cy="334.8" r="5.5" fill="#fff"></circle><circle cx="778.4" cy="260.3" r="4" fill="#fff"></circle><circle cx="839.9" cy="276.8" r="5.5" fill="#fff"></circle><circle cx="885.4" cy="207.3" r="5" fill="#fff"></circle><circle cx="876.4" cy="410.3" r="5" fill="#fff"></circle><circle cx="793.9" cy="471.8" r="5.5" fill="#fff"></circle><circle cx="494.4" cy="397.3" r="9" fill="#fff"></circle><circle cx="538.4" cy="299.3" r="9" fill="#fff"></circle><circle cx="653.4" cy="256.3" r="9" fill="#fff"></circle><circle cx="652.9" cy="391.8" r="9.5" fill="#fff"></circle><circle cx="750.9" cy="378.8" r="9.5" fill="#fff"></circle><circle cx="457.4" cy="338.3" r="9" fill="#fff"></circle><circle cx="515.4" cy="418.3" r="9" fill="#fff"></circle><circle cx="580.4" cy="349.3" r="9" fill="#fff"></circle><circle cx="347.9" cy="373.8" r="8.5" fill="#fff"></circle><circle cx="433.9" cy="264.7" r="8.5" fill="#fff"></circle><path fill="none" stroke="#fff" stroke-linecap="round" stroke-linejoin="round" stroke-width="3" d="m171.8 439.7 32.6-139.4 140 74 112-36 38 59 21 24 65-73 72 45 97-15"></path><path fill="none" stroke="#fff" stroke-miterlimit="10" stroke-width="3" d="m460.3 338.3 76.9-40.1 116.2-41.9"></path><circle cx="352.9" cy="202.8" r="4.5" fill="#fff"></circle><circle cx="679.4" cy="124.3" r="4" fill="#fff"></circle><circle cx="440.9" cy="222.8" r="4.5" fill="#fff"></circle><circle cx="582.4" cy="194.3" r="4" fill="#fff"></circle><circle cx="345.9" cy="296.8" r="3.5" fill="#fff"></circle><circle cx="742.4" cy="156.3" r="6" fill="#fff"></circle><circle cx="628.4" cy="211.3" r="4" fill="#fff"></circle><circle cx="224.4" cy="193.3" r="5" fill="#fff"></circle><circle cx="820.4" cy="338.3" r="5" fill="#fff"></circle><path fill="none" stroke="#fff" stroke-miterlimit="10" stroke-width="3" d="m876.4 410.3-56-72 19-62-61-16"></path><path fill="none" stroke="#fff" stroke-linecap="round" stroke-linejoin="round" stroke-width="3" d="m433.9 264.7 22.5 73.6"></path><linearGradient id="a" x1="844.393" x2="823.613" y1="686.644" y2="565.403" gradientTransform="translate(0 -424)" gradientUnits="userSpaceOnUse"><stop offset="0" stop-color="#21c2c1"></stop><stop offset="1" stop-color="#84f599"></stop></linearGradient><linearGradient id="b" x1="-1420.597" x2="-1290.686" y1="-2258.196" y2="-2258.196" gradientTransform="matrix(-.1691 -.9868 -.9868 .1691 -1623.516 -753.231)" gradientUnits="userSpaceOnUse"><stop offset="0" stop-color="#21c2c1"></stop><stop offset="1" stop-color="#84f599"></stop></linearGradient><path fill="url(#a)" stroke="url(#b)" stroke-miterlimit="10" stroke-width="5" d="m772.5 207.4 56.2-66.9 66.8 56.2-56.1 66.8z"></path><linearGradient id="c" x1="1571.493" x2="1655.754" y1="-1357.904" y2="-1357.904" gradientTransform="matrix(1.0012 -.00468 -.00468 -1.0012 -823.613 -1111.111)" gradientUnits="userSpaceOnUse"><stop offset="0" stop-color="#93fd93"></stop><stop offset="1" stop-color="#21c2c1"></stop></linearGradient><linearGradient id="d" x1="1570.788" x2="1656.458" y1="-1357.905" y2="-1357.905" gradientTransform="matrix(1.0012 -.00468 -.00468 -1.0012 -823.613 -1111.111)" gradientUnits="userSpaceOnUse"><stop offset="0" stop-color="#21c2c1"></stop><stop offset="1" stop-color="#84f599"></stop></linearGradient><path fill="url(#c)" stroke="url(#d)" stroke-miterlimit="10" d="m756 218.2 12.3-14.7 72.3 60-12.3 14.8z"></path><path fill="#fff" d="M854 205.9c-4.7 0-61.6 16-61.6 16l44.1 37.3 7.8-19.4c0 .1 11.1-33.9 9.7-33.9z"></path><linearGradient id="e" x1="743.707" x2="831.513" y1="599.694" y2="599.694" gradientTransform="translate(0 -424)" gradientUnits="userSpaceOnUse"><stop offset="0" stop-color="#21c2c1"></stop><stop offset="1" stop-color="#84f599"></stop></linearGradient><linearGradient id="f" x1="743.207" x2="832.013" y1="-197.694" y2="-197.694" gradientTransform="matrix(1 0 0 -1 0 -22)" gradientUnits="userSpaceOnUse"><stop offset="0" stop-color="#21c2c1"></stop><stop offset="1" stop-color="#84f599"></stop></linearGradient><path fill="url(#e)" stroke="url(#f)" stroke-miterlimit="10" d="M743.7 131.8h87.8v87.8h-87.8z"></path><linearGradient id="g" x1="740.512" x2="833.318" y1="-909.04" y2="-909.04" gradientTransform="matrix(1 0 0 -1 0 -734)" gradientUnits="userSpaceOnUse"><stop offset="0" stop-color="#21c2c1"></stop><stop offset="1" stop-color="#84f599"></stop></linearGradient><path fill="none" stroke="url(#g)" stroke-miterlimit="10" stroke-width="5" d="M743 131.1h87.8v87.8H743z"></path><linearGradient id="h" x1="741.99" x2="831.84" y1="-962.938" y2="-962.938" gradientTransform="matrix(1 0 0 -1 0 -734)" gradientUnits="userSpaceOnUse"><stop offset="0" stop-color="#93fd93"></stop><stop offset="1" stop-color="#21c2c1"></stop></linearGradient><path fill="url(#h)" d="M742 219.1h89.8v19.6H742z"></path><path fill="#fff" d="m792 217.3 24.9-41.7 12.9 18.1v24.5h-10.1z"></path><path fill="#fff" d="m768.3 217.9 29.5-39.5 23.5 39.8zM770.6 148c3.9 0 7 3.1 7 7s-3.1 7-7 7-7-3.1-7-7c-.1-3.8 3.1-7 7-7"></path><g><linearGradient id="i" x1="220.677" x2="395.83" y1="828.582" y2="828.582" gradientTransform="translate(0 -554)" gradientUnits="userSpaceOnUse"><stop offset="0" stop-color="#21c2c1"></stop><stop offset="1" stop-color="#84f599"></stop></linearGradient><linearGradient id="j" x1="220.188" x2="396.449" y1="274.579" y2="274.579" gradientUnits="userSpaceOnUse"><stop offset="0" stop-color="#21c2c1"></stop><stop offset="1" stop-color="#84f599"></stop></linearGradient><path fill="url(#i)" stroke="url(#j)" stroke-miterlimit="10" d="m223.5 330 150-6.2 22.3-104.6-152.4 1.3-22.7 109.4"></path><ellipse cx="310.1" cy="277.8" fill="#fff" rx="9.1" ry="9.6"></ellipse><linearGradient id="k" x1="819.842" x2="905.062" y1="1303.599" y2="1303.599" gradientTransform="translate(-681.86 -977.55)" gradientUnits="userSpaceOnUse"><stop offset="0" stop-color="#21c2c1"></stop><stop offset="1" stop-color="#84f599"></stop></linearGradient><linearGradient id="l" x1="137.482" x2="223.702" y1="326.049" y2="326.049" gradientUnits="userSpaceOnUse"><stop offset="0" stop-color="#21c2c1"></stop><stop offset="1" stop-color="#84f599"></stop></linearGradient><path fill="url(#k)" stroke="url(#l)" stroke-miterlimit="10" d="m222.1 322.2-81.9-.1c-.5 0-.9.3-1.1.8l-1.1 4.9c-.1.6.2 1.1.8 1.2h.2l81.7.8c.5 0 .9-.3 1.1-.8l1.4-5.6c.1-.6-.2-1.2-.8-1.2h-.3z"></path><linearGradient id="m" x1="902.585" x2="1077.738" y1="1250.769" y2="1250.769" gradientTransform="translate(-681.86 -977.55)" gradientUnits="userSpaceOnUse"><stop offset="0" stop-color="#93fd93"></stop><stop offset="1" stop-color="#21c2c1"></stop></linearGradient><path fill="url(#m)" d="m240.9 217.6 152.4-1.1c.2 0 .4.1.6.3l2 2.4-151.9 1.3c-.3 0-.6.2-.7.6l-19.8 108.3c0 .3-.4.6-.7.6h-1.3c-.4 0-.7-.3-.7-.7v-.1l18.9-110.4c0-.7.6-1.2 1.2-1.2z"></path></g><g><linearGradient id="n" x1="1349.671" x2="1435.616" y1="-864.566" y2="-864.566" gradientTransform="scale(1 -1) rotate(25.766 66.161 -2493.147)" gradientUnits="userSpaceOnUse"><stop offset="0" stop-color="#93fd93"></stop><stop offset=".51" stop-color="#21c2c1"></stop><stop offset="1" stop-color="#84f599"></stop></linearGradient><path fill="url(#n)" d="M599.3 469.4s-9.6-34.9-48.9-37.1-40.7-1.3-47.8-.3c-4.1.5-6.5 4.8 0 7.9 6.6 3.2 4.9 5.6 14.1 3.9 9.2-1.7 15.3 7.7 20.6 8.2 5.3.5 9.2-.6 24.2-1.2 13.7-.6 30 8.5 32.4 13.4 2.4 4.9 14.2 1.1 14.2 1.1l-8.8 4.1z"></path><linearGradient id="o" x1="1381.874" x2="1430.708" y1="-837.423" y2="-897.295" gradientTransform="scale(1 -1) rotate(25.766 66.161 -2493.147)" gradientUnits="userSpaceOnUse"><stop offset="0" stop-color="#93fd93"></stop><stop offset=".51" stop-color="#21c2c1"></stop><stop offset="1" stop-color="#84f599"></stop></linearGradient><path fill="url(#o)" d="M596 465.5s-6.3-33.3-41.2-36.1c-34.9-2.8-44.3 2-50.6 2.6-3.6.4 6.7.1 12.5 3.1s4.4 2.4 12.5 2.8c9.4.5 14.4 3 19.1 1.7 6.9-1.8 8.2 5.6 21.5 5.3 12-.3 19.1 11.1 21.3 15.6 2.2 4.5 12.6 1.4 12.6 1.4l-7.7 3.6z"></path><linearGradient id="p" x1="1438.105" x2="1505.242" y1="-905.125" y2="-853.178" gradientTransform="scale(1 -1) rotate(25.766 66.161 -2493.147)" gradientUnits="userSpaceOnUse"><stop offset="0" stop-color="#93fd93"></stop><stop offset=".51" stop-color="#21c2c1"></stop><stop offset="1" stop-color="#84f599"></stop></linearGradient><path fill="url(#p)" d="m621.3 448 1.7-4.4c.8-2.1 2.1-3.9 3.8-5.4 8.4-7.2 34-31.2 35.5-60.1 0-.2-.2-.5-.5-.5H661.5c-4.3 1.7-26 11.7-42.9 50.1-.3.6-.6 1.4-.7 2.1-.2 1.3-.6 3.6-.7 4.8-.1 1.7 2.5 3.2 1.4 6.1-1.1 2.9-3 9.9-3 9.9l4.8.9.9-3.5z"></path><linearGradient id="q" x1="1454.983" x2="1397.319" y1="-878.743" y2="-805.744" gradientTransform="scale(1 -1) rotate(25.766 66.161 -2493.147)" gradientUnits="userSpaceOnUse"><stop offset="0" stop-color="#93fd93"></stop><stop offset=".51" stop-color="#21c2c1"></stop><stop offset="1" stop-color="#84f599"></stop></linearGradient><path fill="url(#q)" d="M604 453.9s-27.4-77.8-61.1-90.1c-31-11.3-21.9 8.4-20.2 11.7.1.3.4.5.6.7 9.3 6.8 16.1 16.4 19.2 27.5 3 11.7 17.6 2.9 24 12.8 6.4 9.9 19.5 23.5 22.6 31.2 3 7.7 6.5 15 6.5 15l8.4-3.8v-5z"></path><linearGradient id="r" x1="1398.05" x2="1438.621" y1="-833.506" y2="-833.506" gradientTransform="scale(1 -1) rotate(25.766 66.161 -2493.147)" gradientUnits="userSpaceOnUse"><stop offset="0" stop-color="#93fd93"></stop><stop offset=".51" stop-color="#21c2c1"></stop><stop offset="1" stop-color="#84f599"></stop></linearGradient><path fill="url(#r)" d="M604 454.2c0-.2-.1-.4-.1-.6-1.8-5.1-28.4-77.9-61-89.8-30.8-11.3-21.9 8.1-20.1 11.5.2.4.6.7 1 .9 2.6 1.5 14 7.9 19.5 3.8 15.2-11 10.2 16.1 24.4 22.5 11.3 5 23 35.3 26.1 43.1 1.7 4.4 3 8.9 3.9 13.5.3 1.2 1.5 1.8 2.6 1.5.1 0 .1 0 .2-.1.2-.1.3-.1.4-.1l1.5-.7c.9-.4 1.5-1.2 1.5-2.2l.1-3.3z"></path><linearGradient id="s" x1="1435.144" x2="1479.093" y1="-899.792" y2="-836.232" gradientTransform="scale(1 -1) rotate(25.766 66.161 -2493.147)" gradientUnits="userSpaceOnUse"><stop offset="0" stop-color="#93fd93"></stop><stop offset=".51" stop-color="#21c2c1"></stop><stop offset="1" stop-color="#84f599"></stop></linearGradient><path fill="url(#s)" d="M614.2 454.6s-8.4-21.1-2.5-39.4c1.7-5 4.8-9.4 8.9-12.7 3.2-2.5 7.6-8.2 8.1-20.2 0 0 3.1-18.2 10.7-27s-2.2-4.6-2.2-4.6-25 18.5-34.8 43.1c-.6 1.5-1.3 3.1-2.2 4.5-3.1 5.3-10 23.2 7.1 57.3l6.9-1z"></path><linearGradient id="t" x1="1409.807" x2="1472.425" y1="-916.218" y2="-916.218" gradientTransform="scale(1 -1) rotate(25.766 66.161 -2493.147)" gradientUnits="userSpaceOnUse"><stop offset="0" stop-color="#f8c547"></stop><stop offset="1" stop-color="#f71d69"></stop></linearGradient><path fill="url(#t)" d="M637.3 441.4s-.8-2.7-4-1c-2.8 1.5-51.5 24.6-51.5 24.6s-2.3 1.1-1.3 2.7c1 1.6 27.8 38.5 29 39 .5.4 1.2.5 1.9.4 1-.2 35-16.8 35-16.8.8-.5 1-1.4.7-2.3-.1.1-9.5-46.1-9.8-46.6"></path></g></svg>