<svg xmlns="http://www.w3.org/2000/svg" viewBox="0 0 32 32" id="settings"><rect width="32" height="32" fill="#fff" opacity="0"></rect><path fill="#d0d2d3" d="M29,13H26.58a10.8,10.8,0,0,0-1-2.36l1.71-1.71a1,1,0,0,0,0-1.42L24.49,4.69a1,1,0,0,0-1.42,0L21.36,6.4a10.8,10.8,0,0,0-2.36-1V3a1,1,0,0,0-1-1H14a1,1,0,0,0-1,1V5.42a10.8,10.8,0,0,0-2.36,1L8.93,4.69a1,1,0,0,0-1.42,0L4.69,7.51a1,1,0,0,0,0,1.42L6.4,10.64a10.8,10.8,0,0,0-1,2.36H3a1,1,0,0,0-1,1v4a1,1,0,0,0,1,1H5.42a10.8,10.8,0,0,0,1,2.36L4.69,23.07a1,1,0,0,0,0,1.42l2.82,2.82a1,1,0,0,0,1.42,0l1.71-1.71a10.8,10.8,0,0,0,2.36,1V29a1,1,0,0,0,1,1h4a1,1,0,0,0,1-1V26.58a10.8,10.8,0,0,0,2.36-1l1.71,1.71a1,1,0,0,0,1.42,0l2.82-2.82a1,1,0,0,0,0-1.42L25.6,21.36a10.8,10.8,0,0,0,1-2.36H29a1,1,0,0,0,1-1V14A1,1,0,0,0,29,13ZM16,20a4,4,0,1,1,4-4A4,4,0,0,1,16,20Z"></path><circle cx="16" cy="16" r="4" fill="#58595b"></circle></svg>