<svg xmlns="http://www.w3.org/2000/svg" id="calendar" enable-background="new 0 0 128 128" version="1.1" viewBox="0 0 128 128" xml:space="preserve"><rect width="89" height="78" x="19" y="34" fill="#fff"></rect><rect width="89" height="78" x="19" y="34" fill="none" stroke="#242c88" stroke-linecap="round" stroke-linejoin="round" stroke-miterlimit="10" stroke-width="2"></rect><rect width="89" height="79" x="19" y="29" fill="#fff"></rect><rect width="89" height="78" x="19" y="34" fill="#242c88" opacity=".3"></rect><polyline fill="none" stroke="#242c88" stroke-linecap="round" stroke-linejoin="round" stroke-miterlimit="10" stroke-width="2" points="104 108 19 108 19 29 108 29 108 108"></polyline><rect width="89" height="80" x="19" y="24" fill="#fff"></rect><rect width="89" height="21" x="19" y="24" fill="#ff5751"></rect><line x1="22" x2="99" y1="40" y2="40" fill="none" stroke="#fff" stroke-linecap="round" stroke-linejoin="round" stroke-miterlimit="10" stroke-width="8" opacity=".2"></line><rect width="89" height="80" x="19" y="24" fill="none" stroke="#242c88" stroke-linecap="round" stroke-linejoin="round" stroke-miterlimit="10" stroke-width="2"></rect><line x1="19" x2="101" y1="45" y2="45" fill="none" stroke="#242c88" stroke-linecap="round" stroke-linejoin="round" stroke-miterlimit="10" stroke-width="2"></line><path fill="#ffc408" d="M35.3,30.5L35.3,30.5c-1.8,0-3.3-1.5-3.3-3.2v-6.4c0-1.8,1.5-3.2,3.2-3.2h0c1.8,0,3.2,1.5,3.2,3.2v6.4  C38.5,29,37,30.5,35.3,30.5z"></path><path fill="none" stroke="#242c88" stroke-linecap="round" stroke-linejoin="round" stroke-miterlimit="10" stroke-width="2" d="M35.3,30.5L35.3,30.5c-1.8,0-3.3-1.5-3.3-3.2v-6.4c0-1.8,1.5-3.2,3.2-3.2h0c1.8,0,3.2,1.5,3.2,3.2v6.4  C38.5,29,37,30.5,35.3,30.5z"></path><path fill="#ffc408" d="M91.2,30.5L91.2,30.5c-1.8,0-3.2-1.5-3.2-3.2v-6.4c0-1.8,1.5-3.2,3.2-3.2l0,0c1.8,0,3.2,1.5,3.2,3.2v6.4  C94.5,29,93,30.5,91.2,30.5z"></path><path fill="none" stroke="#242c88" stroke-linecap="round" stroke-linejoin="round" stroke-miterlimit="10" stroke-width="2" d="M91.2,30.5L91.2,30.5c-1.8,0-3.2-1.5-3.2-3.2v-6.4c0-1.8,1.5-3.2,3.2-3.2l0,0c1.8,0,3.2,1.5,3.2,3.2v6.4  C94.5,29,93,30.5,91.2,30.5z"></path><rect width="13" height="11.3" x="48" y="54" fill="#caeafb"></rect><rect width="13" height="11.3" x="66" y="54" fill="#caeafb"></rect><rect width="13" height="11.3" x="84" y="54" fill="#caeafb"></rect><rect width="13" height="11.3" x="48" y="70.4" fill="#589fff"></rect><rect width="13" height="11.3" x="30" y="70.4" fill="#caeafb"></rect><rect width="13" height="11.3" x="66" y="70.4" fill="#caeafb"></rect><rect width="13" height="11.3" x="84" y="70.4" fill="#caeafb"></rect><rect width="13" height="11.3" x="48" y="85.7" fill="#caeafb"></rect><rect width="13" height="11.3" x="30" y="85.7" fill="#caeafb"></rect><rect width="13" height="11.3" x="66" y="85.7" fill="#caeafb"></rect><rect width="13" height="11" x="48" y="54" fill="none" stroke="#242c88" stroke-linecap="round" stroke-linejoin="round" stroke-miterlimit="10" stroke-width="2"></rect><rect width="13" height="11" x="66" y="54" fill="none" stroke="#242c88" stroke-linecap="round" stroke-linejoin="round" stroke-miterlimit="10" stroke-width="2"></rect><rect width="13" height="11" x="84" y="54" fill="none" stroke="#242c88" stroke-linecap="round" stroke-linejoin="round" stroke-miterlimit="10" stroke-width="2"></rect><rect width="13" height="11" x="48" y="70" fill="none" stroke="#242c88" stroke-linecap="round" stroke-linejoin="round" stroke-miterlimit="10" stroke-width="2"></rect><rect width="13" height="11" x="30" y="70" fill="none" stroke="#242c88" stroke-linecap="round" stroke-linejoin="round" stroke-miterlimit="10" stroke-width="2"></rect><rect width="13" height="11" x="66" y="70" fill="none" stroke="#242c88" stroke-linecap="round" stroke-linejoin="round" stroke-miterlimit="10" stroke-width="2"></rect><rect width="13" height="11" x="84" y="70" fill="none" stroke="#242c88" stroke-linecap="round" stroke-linejoin="round" stroke-miterlimit="10" stroke-width="2"></rect><rect width="13" height="11" x="48" y="86" fill="none" stroke="#242c88" stroke-linecap="round" stroke-linejoin="round" stroke-miterlimit="10" stroke-width="2"></rect><rect width="13" height="11" x="30" y="86" fill="none" stroke="#242c88" stroke-linecap="round" stroke-linejoin="round" stroke-miterlimit="10" stroke-width="2"></rect><rect width="13" height="11" x="66" y="86" fill="none" stroke="#242c88" stroke-linecap="round" stroke-linejoin="round" stroke-miterlimit="10" stroke-width="2"></rect></svg>