<svg xmlns="http://www.w3.org/2000/svg" width="512" height="512" id="goal"><linearGradient id="a" x1="292.648" x2="438.745" y1="162.078" y2="162.078" gradientUnits="userSpaceOnUse"><stop offset="0" stop-color="#0FF"></stop><stop offset="1" stop-color="#FF7BAC"></stop></linearGradient><path fill="url(#a)" d="M438.745 233.675H292.648V90.481h146.097l-37.951 71.597z"></path><linearGradient id="b" x1="186.998" x2="333.095" y1="130.006" y2="130.006" gradientUnits="userSpaceOnUse"><stop offset="0" stop-color="#0FF"></stop><stop offset="1" stop-color="#FF7BAC"></stop></linearGradient><path fill="url(#b)" d="M186.998 58.409h146.097v143.194H186.998z"></path><linearGradient id="c" x1="-685.102" x2="-685.102" y1="463.271" y2="279.392" gradientTransform="matrix(-1 0 0 1 -346.349 0)" gradientUnits="userSpaceOnUse"><stop offset="0" stop-color="#FFF"></stop><stop offset=".328" stop-color="#FCFCFC"></stop><stop offset=".53" stop-color="#F4F4F4"></stop><stop offset=".698" stop-color="#E5E5E5"></stop><stop offset=".848" stop-color="#D1D1D1"></stop><stop offset=".984" stop-color="#B7B7B7"></stop><stop offset="1" stop-color="#B3B3B3"></stop></linearGradient><path fill="url(#c)" d="m355.442 279.391 95.61 131.35c-8.966-2.739-18.663-4.422-28.974-4.422-56 0-70 56.951-135 56.951-24.977 0-45.185-2.992-60.625-6.674l128.989-177.205z"></path><path fill="#3F5EAB" d="M196.998 256.686V49.745c0-12.869-20-12.891-20 0v207.111L60.947 423.119c11.687-4.871 24.902-8.154 39.314-8.154 56 0 70 56.951 135 56.951s97.833-20.249 97.833-20.249L196.998 256.686z"></path></svg>